<mxfile host="app.diagrams.net" modified="2020-08-27T14:12:19.662Z" agent="5.0 (Windows NT 10.0; Win64; x64) AppleWebKit/537.36 (KHTML, like Gecko) Chrome/80.0.3987.100 Safari/537.36" etag="GVg-MrtaEkWaVOxFu2tZ" version="13.6.5" type="github">
  <diagram id="nriv4HvAzGI1tTB1WDL9" name="Page-1">
    <mxGraphModel dx="1321" dy="804" grid="1" gridSize="10" guides="1" tooltips="1" connect="1" arrows="1" fold="1" page="1" pageScale="1" pageWidth="827" pageHeight="1169" math="0" shadow="0">
      <root>
        <mxCell id="0" />
        <mxCell id="1" parent="0" />
        <mxCell id="TH7KWvAf7Anf3iLyjJU4-11" style="edgeStyle=orthogonalEdgeStyle;rounded=0;orthogonalLoop=1;jettySize=auto;html=1;entryX=0.5;entryY=0;entryDx=0;entryDy=0;" edge="1" parent="1" source="TH7KWvAf7Anf3iLyjJU4-1" target="TH7KWvAf7Anf3iLyjJU4-3">
          <mxGeometry relative="1" as="geometry" />
        </mxCell>
        <mxCell id="TH7KWvAf7Anf3iLyjJU4-1" value="店铺登录ERP" style="rounded=0;whiteSpace=wrap;html=1;" vertex="1" parent="1">
          <mxGeometry x="117" y="135" width="120" height="60" as="geometry" />
        </mxCell>
        <mxCell id="TH7KWvAf7Anf3iLyjJU4-8" value="带登录信息" style="edgeStyle=orthogonalEdgeStyle;rounded=0;orthogonalLoop=1;jettySize=auto;html=1;entryX=0.5;entryY=0;entryDx=0;entryDy=0;" edge="1" parent="1" source="TH7KWvAf7Anf3iLyjJU4-3" target="TH7KWvAf7Anf3iLyjJU4-7">
          <mxGeometry relative="1" as="geometry" />
        </mxCell>
        <mxCell id="TH7KWvAf7Anf3iLyjJU4-3" value="点击菜单，跳转到视频通话页" style="rounded=0;whiteSpace=wrap;html=1;" vertex="1" parent="1">
          <mxGeometry x="87" y="235" width="180" height="60" as="geometry" />
        </mxCell>
        <mxCell id="TH7KWvAf7Anf3iLyjJU4-10" style="edgeStyle=orthogonalEdgeStyle;rounded=0;orthogonalLoop=1;jettySize=auto;html=1;" edge="1" parent="1" source="TH7KWvAf7Anf3iLyjJU4-7" target="TH7KWvAf7Anf3iLyjJU4-9">
          <mxGeometry relative="1" as="geometry" />
        </mxCell>
        <mxCell id="TH7KWvAf7Anf3iLyjJU4-7" value="点击按钮发送视频通话请求" style="rounded=0;whiteSpace=wrap;html=1;" vertex="1" parent="1">
          <mxGeometry x="94" y="365" width="166" height="60" as="geometry" />
        </mxCell>
        <mxCell id="TH7KWvAf7Anf3iLyjJU4-9" value="创建房间，调用API通知中控" style="rounded=0;whiteSpace=wrap;html=1;" vertex="1" parent="1">
          <mxGeometry x="330" y="260" width="214" height="60" as="geometry" />
        </mxCell>
        <mxCell id="TH7KWvAf7Anf3iLyjJU4-14" value="门店" style="text;html=1;align=center;verticalAlign=middle;resizable=0;points=[];autosize=1;fontSize=18;" vertex="1" parent="1">
          <mxGeometry x="152" y="80" width="50" height="30" as="geometry" />
        </mxCell>
        <mxCell id="TH7KWvAf7Anf3iLyjJU4-15" value="中控" style="text;html=1;align=center;verticalAlign=middle;resizable=0;points=[];autosize=1;fontSize=18;" vertex="1" parent="1">
          <mxGeometry x="660" y="90" width="50" height="30" as="geometry" />
        </mxCell>
        <mxCell id="TH7KWvAf7Anf3iLyjJU4-24" style="edgeStyle=orthogonalEdgeStyle;rounded=0;orthogonalLoop=1;jettySize=auto;html=1;entryX=0.5;entryY=0;entryDx=0;entryDy=0;fontSize=12;" edge="1" parent="1" source="TH7KWvAf7Anf3iLyjJU4-16" target="TH7KWvAf7Anf3iLyjJU4-23">
          <mxGeometry relative="1" as="geometry" />
        </mxCell>
        <mxCell id="TH7KWvAf7Anf3iLyjJU4-16" value="收到创建房间信息，获取房间号" style="rounded=0;whiteSpace=wrap;html=1;fontSize=12;" vertex="1" parent="1">
          <mxGeometry x="640" y="140" width="120" height="60" as="geometry" />
        </mxCell>
        <mxCell id="TH7KWvAf7Anf3iLyjJU4-21" value="" style="endArrow=classic;html=1;fontSize=12;exitX=0.542;exitY=-0.067;exitDx=0;exitDy=0;entryX=0;entryY=0.5;entryDx=0;entryDy=0;exitPerimeter=0;" edge="1" parent="1" source="TH7KWvAf7Anf3iLyjJU4-9" target="TH7KWvAf7Anf3iLyjJU4-16">
          <mxGeometry width="50" height="50" relative="1" as="geometry">
            <mxPoint x="390" y="380" as="sourcePoint" />
            <mxPoint x="440" y="330" as="targetPoint" />
          </mxGeometry>
        </mxCell>
        <mxCell id="TH7KWvAf7Anf3iLyjJU4-26" style="edgeStyle=orthogonalEdgeStyle;rounded=0;orthogonalLoop=1;jettySize=auto;html=1;entryX=0.5;entryY=0;entryDx=0;entryDy=0;fontSize=12;" edge="1" parent="1" source="TH7KWvAf7Anf3iLyjJU4-23" target="TH7KWvAf7Anf3iLyjJU4-25">
          <mxGeometry relative="1" as="geometry" />
        </mxCell>
        <mxCell id="TH7KWvAf7Anf3iLyjJU4-23" value="列表显示当前已经创建的房间" style="whiteSpace=wrap;html=1;fontSize=12;" vertex="1" parent="1">
          <mxGeometry x="640" y="260" width="120" height="60" as="geometry" />
        </mxCell>
        <mxCell id="TH7KWvAf7Anf3iLyjJU4-25" value="操作：是否加入房间（接听视频通话）" style="whiteSpace=wrap;html=1;fontSize=12;" vertex="1" parent="1">
          <mxGeometry x="640" y="380" width="120" height="60" as="geometry" />
        </mxCell>
        <mxCell id="TH7KWvAf7Anf3iLyjJU4-28" value="" style="endArrow=classic;html=1;fontSize=12;exitX=0;exitY=0.5;exitDx=0;exitDy=0;entryX=0.93;entryY=1.067;entryDx=0;entryDy=0;entryPerimeter=0;" edge="1" parent="1" source="TH7KWvAf7Anf3iLyjJU4-25" target="TH7KWvAf7Anf3iLyjJU4-9">
          <mxGeometry width="50" height="50" relative="1" as="geometry">
            <mxPoint x="570" y="390" as="sourcePoint" />
            <mxPoint x="440" y="330" as="targetPoint" />
          </mxGeometry>
        </mxCell>
        <mxCell id="TH7KWvAf7Anf3iLyjJU4-29" value="是" style="text;html=1;align=center;verticalAlign=middle;resizable=0;points=[];autosize=1;fontSize=12;" vertex="1" parent="1">
          <mxGeometry x="580" y="350" width="30" height="20" as="geometry" />
        </mxCell>
      </root>
    </mxGraphModel>
  </diagram>
</mxfile>
